<svg xmlns="http://www.w3.org/2000/svg" viewBox="0 0 400 120" width="400" height="120">
  <!-- ORE text in Gold -->
  <g fill="#D4AF37" font-family="system-ui, -apple-system, sans-serif" font-weight="900">
    <!-- Custom O with open bottom -->
    <path d="M 60 20 C 20 20 20 60 20 80 L 20 100 L 45 100 L 45 80 C 45 50 75 50 75 80 L 75 100 L 100 100 L 100 80 C 100 60 100 20 60 20 Z" />
    
    <!-- R -->
    <rect x="130" y="20" width="25" height="80" />
    <path d="M 130 20 L 190 20 C 220 20 220 60 190 60 L 130 60 Z M 155 40 L 190 40 C 195 40 195 45 195 45 C 195 50 190 45 155 45 Z" fill-rule="evenodd" />
    <polygon points="170,60 195,60 225,100 195,100" />
    
    <!-- E -->
    <rect x="250" y="20" width="25" height="80" />
    <rect x="250" y="20" width="60" height="20" />
    <rect x="250" y="50" width="50" height="20" />
    <rect x="250" y="80" width="60" height="20" />
  </g>
  
  <text x="50" y="115" font-family="system-ui, -apple-system, sans-serif" font-size="12" font-weight="600" letter-spacing="0.3em" fill="#FFFFFF">REAL ESTATE</text>
</svg>
